<?xml version="1.0" encoding="utf-8"?>
<!-- Generator: Adobe Illustrator 15.0.0, SVG Export Plug-In . SVG Version: 6.00 Build 0)  -->
<!DOCTYPE svg PUBLIC "-//W3C//DTD SVG 1.1//EN" "http://www.w3.org/Graphics/SVG/1.1/DTD/svg11.dtd">
<svg version="1.1" id="Layer_1" xmlns="http://www.w3.org/2000/svg" xmlns:xlink="http://www.w3.org/1999/xlink" x="0px" y="0px"
	 width="337.667px" height="338px" viewBox="0 0 337.667 338" enable-background="new 0 0 337.667 338" xml:space="preserve">
<path fill="#254852" d="M-62.262,59.563v-23.47c0-8.793-7.128-15.922-15.921-15.922h-58.822c-8.794,0-15.922,7.128-15.922,15.922
	v23.47h-10.742v179.815h-0.033l0.033,0.032v0.01h0.011l46.997,45.502v21.432h18.133v-21.429l46.997-45.505h0.194V59.563H-62.262z
	 M-92.184,170.721h-30.636v-63.981c0-6.839,6.857-12.384,15.318-12.384c8.459,0,15.318,5.544,15.318,12.384V170.721z
	 M-122.82,181.041h30.636v24.177c0,6.841-6.858,12.384-15.318,12.384s-15.318-5.543-15.318-12.384V181.041z"/>
<path fill="#254852" d="M-6.616,388.997h-7.859v-23.192c0-8.688-5.772-15.732-12.893-15.732h-47.634
	c-7.12,0-12.893,7.043-12.893,15.732v23.192h-8.311l-10.612,177.681h-0.035l0.033,0.031v0.011h0.011l49.315,47.747v14.725
	c0,3.357,2.723,6.08,6.082,6.08c3.36,0,6.083-2.723,6.083-6.08v-14.721L3.987,566.72h0.192L-6.616,388.997z M-37.854,498.835
	h-25.492v-63.224c0-6.758,5.706-12.236,12.746-12.236c7.039,0,12.746,5.479,12.746,12.236V498.835z M-63.346,509.033h25.492v23.89
	c0,6.759-5.707,12.237-12.746,12.237c-7.04,0-12.746-5.479-12.746-12.237V509.033z"/>
<g>
	<path fill="#254852" d="M-198.599,93.912l5.173-22.723c1.938-8.513-3.393-16.985-11.906-18.923l-56.949-12.963
		c-8.513-1.938-16.985,3.393-18.923,11.906l-5.172,22.722l-10.399-2.367l-39.637,174.13l108.754,24.754l39.636-174.129
		L-198.599,93.912z"/>
	<polygon fill="#254852" points="-303.856,312.963 -307.604,329.426 -290.048,333.422 -286.301,316.961 -230.722,283.232 
		-339.361,258.502 	"/>
</g>
<g>
	<path fill="none" d="M498.446,172.477c1.882,1.107,2.509,3.531,1.401,5.414c-1.107,1.882-3.531,2.51-5.412,1.402
		c-1.883-1.107-2.511-3.53-1.402-5.413C494.139,171.998,496.563,171.369,498.446,172.477z"/>
	<path fill="#FFFFFF" d="M505.831,210.143c-0.12-0.485-0.323-1.055-0.613-1.657c0.074-0.146,0.145-0.293,0.201-0.448l12.041-33.145
		c0.711-1.958-0.199-4.133-2.092-5.002c-0.54-0.248-13.176-6.242-8.011-20.939c0.732-2.084-0.363-4.367-2.447-5.1
		c-2.082-0.731-4.367,0.363-5.1,2.448c-5.163,14.688,2.391,24.495,8.986,29.011l-10.014,27.562l-1.495,0.11
		c-0.274-0.021-0.548-0.041-0.837-0.041c-0.406,0-0.828,0.021-1.269,0.066c-0.461,0.047-0.894,0.123-1.309,0.216l-10.142-26.61
		c5.167-3.748,8.447-8.312,9.769-13.601c2.272-9.1-2.319-16.841-2.516-17.166c-1.139-1.882-3.573-2.481-5.465-1.355
		c-1.889,1.126-2.508,3.577-1.394,5.474c0.77,1.309,7.101,13.04-7.323,21.638c-1.669,0.994-2.382,3.045-1.689,4.86l12.185,31.972
		c-0.447,0.885-0.628,1.542-0.649,1.624c-0.023,0.09-0.039,0.183-0.045,0.276l-0.782,11.183c3.42,0.793,6.977,1.227,10.638,1.227
		c3.882,0,7.65-0.48,11.259-1.37l-1.864-11.12C505.847,210.217,505.84,210.18,505.831,210.143z"/>
	<circle fill="#FFFFFF" cx="496.44" cy="175.885" r="3.954"/>
</g>
<g>
	<path fill="#FFFFFF" d="M222.528,131.614l-21.839-76.109l-17.086,0.019l0.003-0.175l-31.85,0.029l0.004,0.171l-16.263,0.011
		l-21.706,76.148l-23.866,72.995c0,0,47.717,14.002,49.819,89.604c5.376-0.007,12.561,0.029,17.82,0.059
		c1.517,0.011,2.87,0.015,3.969,0.018l-0.09-103.179c-4.652-2.463-7.817-7.352-7.825-12.982c-0.011-8.115,6.57-14.707,14.681-14.714
		c8.12-0.007,14.707,6.566,14.707,14.688c0.008,5.718-3.255,10.673-8.024,13.099l0.094,103.082c1.1-0.008,2.448-0.021,3.969-0.033
		c5.256-0.041,12.447-0.087,17.81-0.095c1.979-75.599,49.668-89.687,49.668-89.687L222.528,131.614z"/>
</g>
<g>
	<polygon fill="#020202" points="501.333,327.888 501.333,400.499 619,400.499 619,327.88 559.991,384.759 	"/>
	<polygon fill="#020202" points="612.996,321.166 507.33,321.166 560.008,372.241 	"/>
</g>
</svg>
