<?xml version="1.0" encoding="utf-8"?>
<!-- Generator: Adobe Illustrator 15.0.0, SVG Export Plug-In . SVG Version: 6.00 Build 0)  -->
<!DOCTYPE svg PUBLIC "-//W3C//DTD SVG 1.1//EN" "http://www.w3.org/Graphics/SVG/1.1/DTD/svg11.dtd">
<svg version="1.1" id="Layer_1" xmlns="http://www.w3.org/2000/svg" xmlns:xlink="http://www.w3.org/1999/xlink" x="0px" y="0px"
	 width="337.667px" height="338px" viewBox="0 0 337.667 338" enable-background="new 0 0 337.667 338" xml:space="preserve">
<path fill="#254852" d="M-62.262,59.563v-23.47c0-8.793-7.128-15.922-15.921-15.922h-58.822c-8.794,0-15.922,7.128-15.922,15.922
	v23.47h-10.742v179.815h-0.033l0.033,0.032v0.01h0.011l46.997,45.502v21.431h18.133v-21.428l46.997-45.505h0.194V59.563H-62.262z
	 M-92.184,170.721h-30.636v-63.982c0-6.839,6.857-12.384,15.318-12.384c8.459,0,15.318,5.544,15.318,12.384V170.721z
	 M-122.82,181.041h30.636v24.177c0,6.84-6.858,12.384-15.318,12.384c-8.46,0-15.318-5.544-15.318-12.384V181.041z"/>
<path fill="#254852" d="M-6.616,388.997h-7.859v-23.192c0-8.689-5.772-15.733-12.893-15.733h-47.634
	c-7.12,0-12.893,7.043-12.893,15.733v23.192h-8.311l-10.612,177.681h-0.035l0.033,0.031l0,0.011h0.011l49.315,47.747v14.724
	c0,3.358,2.723,6.081,6.082,6.081c3.36,0,6.083-2.723,6.083-6.081v-14.72L3.987,566.72h0.192L-6.616,388.997z M-37.854,498.835
	h-25.492v-63.224c0-6.757,5.706-12.236,12.746-12.236c7.039,0,12.746,5.479,12.746,12.236V498.835z M-63.346,509.033h25.492v23.89
	c0,6.759-5.707,12.237-12.746,12.237c-7.04,0-12.746-5.479-12.746-12.237V509.033z"/>
<g>
	<path fill="#FFFFFF" d="M235.401,76.578l5.172-22.723c1.938-8.513-3.392-16.985-11.906-18.923l-56.949-12.963
		c-8.513-1.938-16.985,3.393-18.923,11.906l-5.172,22.722l-10.399-2.367L97.587,228.359l108.754,24.755l39.636-174.129
		L235.401,76.578z"/>
	<polygon fill="#FFFFFF" points="130.143,295.629 126.396,312.092 143.951,316.088 147.698,299.628 203.278,265.898 94.638,241.169 
			"/>
</g>
</svg>
